M48
; fleet_telematics_carrier-PTH.drl
METRIC,LZ
T01C0.900
T02C1.300
%
G90
M71
T01
X16.000Y69.000
X18.540Y69.000
X21.080Y69.000
X23.620Y69.000
X26.160Y69.000
X28.700Y69.000
X31.240Y69.000
X33.780Y69.000
X36.320Y69.000
X38.860Y69.000
X41.400Y69.000
X43.940Y69.000
X58.000Y58.000
X58.000Y55.460
X58.000Y52.920
X58.000Y50.380
X58.000Y47.840
X58.000Y45.300
X58.000Y42.760
X58.000Y40.220
X58.000Y37.680
X58.000Y35.140
X68.160Y58.000
X68.160Y55.460
X68.160Y52.920
X68.160Y50.380
X68.160Y47.840
X68.160Y45.300
X68.160Y42.760
X68.160Y40.220
X68.160Y37.680
X68.160Y35.140
X103.000Y62.000
X103.000Y59.460
X103.000Y56.920
X103.000Y54.380
X103.000Y51.840
X103.000Y49.300
X103.000Y46.760
X103.000Y44.220
X103.000Y41.680
X22.000Y20.000
X24.540Y20.000
X27.080Y20.000
X29.620Y20.000
X32.160Y20.000
X34.700Y20.000
X37.240Y20.000
X39.780Y20.000
X48.000Y20.000
X54.000Y20.000
T02
X7.000Y45.400
X7.000Y40.320
X7.000Y35.240
X7.000Y30.160
X7.000Y25.080
X7.000Y20.000
X112.000Y30.200
X112.000Y25.120
X112.000Y20.040
X112.000Y14.960
X22.000Y8.000
X27.080Y8.000
M30
